<svg width="68" height="68" viewBox="0 0 68 68" fill="none" xmlns="http://www.w3.org/2000/svg">
<path d="M23.664 57.3524C24.8969 58.9114 26.468 60.1699 28.2586 61.0328C30.0491 61.8957 32.0124 62.3404 34 62.3334C35.9876 62.3404 37.9509 61.8957 39.7414 61.0328C41.532 60.1699 43.1031 58.9114 44.336 57.3524C37.4766 58.2807 30.5234 58.2807 23.664 57.3524ZM53.125 25.5V27.4947C53.125 29.8889 53.805 32.2292 55.0857 34.221L58.225 39.1029C61.0895 43.5625 58.9022 49.623 53.9183 51.0312C40.8955 54.7192 27.1045 54.7192 14.0817 51.0312C9.09783 49.623 6.91049 43.5625 9.77499 39.1029L12.9143 34.221C14.1984 32.2127 14.8798 29.8784 14.8778 27.4947V25.5C14.8778 14.5464 23.4402 5.66669 34 5.66669C44.5598 5.66669 53.125 14.5464 53.125 25.5Z" fill="#479B6D"/>
</svg>
