<svg width="51" height="51" viewBox="0 0 51 51" fill="none" xmlns="http://www.w3.org/2000/svg">
<path d="M29.75 19.125C29.1479 19.125 28.6436 18.921 28.237 18.513C27.8304 18.105 27.6264 17.6007 27.625 17V8.5C27.625 7.89792 27.829 7.39358 28.237 6.987C28.645 6.58042 29.1493 6.37642 29.75 6.375H42.5C43.1021 6.375 43.6071 6.579 44.0151 6.987C44.4231 7.395 44.6264 7.89933 44.625 8.5V17C44.625 17.6021 44.421 18.1071 44.013 18.5151C43.605 18.9231 43.1007 19.1264 42.5 19.125H29.75ZM8.5 27.625C7.89792 27.625 7.39358 27.421 6.987 27.013C6.58042 26.605 6.37642 26.1007 6.375 25.5V8.5C6.375 7.89792 6.579 7.39358 6.987 6.987C7.395 6.58042 7.89933 6.37642 8.5 6.375H21.25C21.8521 6.375 22.3571 6.579 22.7651 6.987C23.1731 7.395 23.3764 7.89933 23.375 8.5V25.5C23.375 26.1021 23.171 26.6071 22.763 27.0151C22.355 27.4231 21.8507 27.6264 21.25 27.625H8.5ZM29.75 44.625C29.1479 44.625 28.6436 44.421 28.237 44.013C27.8304 43.605 27.6264 43.1007 27.625 42.5V25.5C27.625 24.8979 27.829 24.3936 28.237 23.987C28.645 23.5804 29.1493 23.3764 29.75 23.375H42.5C43.1021 23.375 43.6071 23.579 44.0151 23.987C44.4231 24.395 44.6264 24.8993 44.625 25.5V42.5C44.625 43.1021 44.421 43.6071 44.013 44.0151C43.605 44.4231 43.1007 44.6264 42.5 44.625H29.75ZM8.5 44.625C7.89792 44.625 7.39358 44.421 6.987 44.013C6.58042 43.605 6.37642 43.1007 6.375 42.5V34C6.375 33.3979 6.579 32.8936 6.987 32.487C7.395 32.0804 7.89933 31.8764 8.5 31.875H21.25C21.8521 31.875 22.3571 32.079 22.7651 32.487C23.1731 32.895 23.3764 33.3993 23.375 34V42.5C23.375 43.1021 23.171 43.6071 22.763 44.0151C22.355 44.4231 21.8507 44.6264 21.25 44.625H8.5Z" fill="#479B6D"/>
</svg>
