<svg width="54" height="54" viewBox="0 0 54 54" fill="none" xmlns="http://www.w3.org/2000/svg">
<path d="M11.25 47.25C10.0125 47.25 8.9535 46.8098 8.073 45.9293C7.1925 45.0488 6.7515 43.989 6.75 42.75V11.25C6.75 10.0125 7.191 8.9535 8.073 8.073C8.955 7.1925 10.014 6.7515 11.25 6.75H42.75C43.9875 6.75 45.0473 7.191 45.9293 8.073C46.8113 8.955 47.2515 10.014 47.25 11.25V42.75C47.25 43.9875 46.8098 45.0473 45.9293 45.9293C45.0488 46.8113 43.989 47.2515 42.75 47.25H11.25ZM13.5 38.25H40.5L32.0625 27L25.3125 36L20.25 29.25L13.5 38.25Z" fill="#479B6D"/>
</svg>
