<svg width="58" height="58" viewBox="0 0 58 58" fill="none" xmlns="http://www.w3.org/2000/svg">
<path d="M55.5833 9.90831V5.55831L51.2333 5.07498C50.9917 5.07498 49.5417 4.83331 47.125 4.83331C37.2167 4.83331 29.9667 7.73331 25.8583 12.8083C22.7167 10.875 18.3667 9.66665 13.2917 9.66665C10.875 9.66665 9.18334 9.90831 9.18334 9.90831L4.59167 10.6333L4.83334 14.7416C5.07501 21.9916 8.70001 35.7666 21.2667 35.7666H21.75V43.9833C12.5667 45.1916 4.83334 48.3333 4.83334 48.3333V53.1666H53.1667V48.3333C53.1667 48.3333 45.4333 45.1916 36.25 43.9833V36.25C51.475 36.0083 55.5833 18.85 55.5833 9.90831ZM29 43.5H26.5833V29.9666C26.5833 29.9666 26.1 21.75 19.3333 21.75C19.3333 21.75 22.9583 23.6833 23.925 30.6916C22.9583 30.9333 21.9917 30.9333 21.2667 30.9333C10.15 30.9333 9.66667 14.7416 9.66667 14.7416C9.66667 14.7416 11.1167 14.5 13.2917 14.5C17.8833 14.5 25.375 15.4666 27.55 21.9916C28.7583 11.1166 41.0833 9.66665 47.125 9.66665C49.3 9.66665 50.75 9.90831 50.75 9.90831C50.75 9.90831 50.75 31.6583 35.525 31.6583H33.8333C33.8333 26.825 38.6667 19.575 38.6667 19.575C31.4167 21.9916 31.4167 31.4166 31.4167 31.4166V43.5H29Z" fill="#479B6D"/>
</svg>
