<svg width="56" height="57" viewBox="0 0 56 57" fill="none" xmlns="http://www.w3.org/2000/svg">
<path d="M53.9241 32.7073C53 32.7134 52.0962 32.4365 51.3341 31.9139V36.2073C51.3341 36.5167 51.2112 36.8134 50.9924 37.0322C50.7736 37.251 50.4768 37.3739 50.1674 37.3739H5.83408C5.52466 37.3739 5.22792 37.251 5.00913 37.0322C4.79033 36.8134 4.66742 36.5167 4.66742 36.2073V6.08392C4.64154 5.74709 4.74952 5.41364 4.96793 5.15591C5.18634 4.89818 5.49757 4.73697 5.83408 4.70725H24.6174C25.6633 2.91582 27.032 1.33359 28.6541 0.0405884L5.83408 0.0405884C4.26006 0.071259 2.76235 0.724492 1.66899 1.85721C0.575634 2.98993 -0.0242432 4.5098 0.000750849 6.08392V40.8739C0.000750849 42.7304 0.738249 44.5109 2.051 45.8237C3.36376 47.1364 5.14424 47.8739 7.00075 47.8739H23.9174C24.0721 47.8739 24.2205 47.9354 24.3299 48.0448C24.4393 48.1542 24.5007 48.3025 24.5007 48.4573V50.7906C24.5007 50.9453 24.4393 51.0937 24.3299 51.2031C24.2205 51.3125 24.0721 51.3739 23.9174 51.3739H11.6674C11.0486 51.3739 10.4551 51.6198 10.0175 52.0573C9.57992 52.4949 9.33408 53.0884 9.33408 53.7073C9.33408 54.3261 9.57992 54.9196 10.0175 55.3572C10.4551 55.7948 11.0486 56.0406 11.6674 56.0406H44.3341C44.9529 56.0406 45.5464 55.7948 45.984 55.3572C46.4216 54.9196 46.6674 54.3261 46.6674 53.7073C46.6674 53.0884 46.4216 52.4949 45.984 52.0573C45.5464 51.6198 44.9529 51.3739 44.3341 51.3739H29.7507C29.596 51.3739 29.4477 51.3125 29.3383 51.2031C29.2289 51.0937 29.1674 50.9453 29.1674 50.7906V48.4573C29.1674 48.3025 29.2289 48.1542 29.3383 48.0448C29.4477 47.9354 29.596 47.8739 29.7507 47.8739H49.0008C50.8573 47.8739 52.6377 47.1364 53.9505 45.8237C55.2633 44.5109 56.0008 42.7304 56.0008 40.8739V32.2173C55.3557 32.5388 54.6449 32.7065 53.9241 32.7073Z" fill="#479B6D"/>
<path d="M22.4237 12.8739V11.9406C21.8516 11.7939 21.2642 11.7155 20.6737 11.7072C19.8782 11.6963 19.0875 11.8307 18.3403 12.1039C18.2539 12.1489 18.1578 12.1724 18.0603 12.1724C17.9628 12.1724 17.8668 12.1489 17.7803 12.1039C17.3934 11.7644 17.0862 11.3437 16.8805 10.8718C16.6748 10.3999 16.5757 9.88847 16.5903 9.37392C16.5903 8.90979 16.406 8.46467 16.0778 8.13648C15.7496 7.80829 15.3045 7.62392 14.8403 7.62392C14.3762 7.62392 13.9311 7.80829 13.6029 8.13648C13.2747 8.46467 13.0903 8.90979 13.0903 9.37392C13.1006 11.1007 13.7488 12.7628 14.9103 14.0406C14.9959 14.1417 15.0428 14.2698 15.0428 14.4022C15.0428 14.5347 14.9959 14.6628 14.9103 14.7639C14.2055 15.7554 13.7712 16.9135 13.6503 18.1239C13.6419 18.2054 13.6523 18.2877 13.6806 18.3645C13.7089 18.4414 13.7544 18.5107 13.8137 18.5672C13.8749 18.6257 13.9491 18.6689 14.0302 18.6933C14.1113 18.7176 14.197 18.7224 14.2803 18.7072H23.6137C22.8578 16.8537 22.4542 14.8754 22.4237 12.8739ZM32.9003 31.2839C32.6148 30.0454 31.96 28.9227 31.0226 28.0644C30.0851 27.2061 28.9092 26.6527 27.6503 26.4772V24.8439C26.6326 23.9033 25.7388 22.8369 24.9903 21.6706H15.4237C12.4837 21.6706 11.9703 19.9672 11.9003 19.5939C11.8097 19.1428 11.5473 18.7445 11.1685 18.4833C10.7897 18.2221 10.3242 18.1183 9.87033 18.1939C9.41677 18.2738 9.01298 18.5293 8.74654 18.9049C8.48009 19.2806 8.37246 19.7461 8.44699 20.2006C8.72499 21.4387 9.37445 22.5625 10.3085 23.4214C11.2425 24.2804 12.4166 24.8337 13.6737 25.0072V26.4772C12.4136 26.6495 11.236 27.2019 10.298 28.0607C9.36002 28.9195 8.70615 30.0439 8.42366 31.2839C8.34858 31.735 8.45304 32.1975 8.71469 32.5726C8.97634 32.9476 9.37439 33.2053 9.82366 33.2906H10.1503C10.5535 33.2848 10.943 33.1436 11.2562 32.8897C11.5694 32.6357 11.788 32.2838 11.877 31.8906C12.0152 31.3625 12.3139 30.8904 12.7318 30.5394C13.1498 30.1883 13.6664 29.9756 14.2103 29.9306C14.7224 31.2436 15.6189 32.3716 16.7825 33.1668C17.9461 33.962 19.3226 34.3874 20.732 34.3874C22.1414 34.3874 23.5179 33.962 24.6815 33.1668C25.8451 32.3716 26.7416 31.2436 27.2537 29.9306C27.7895 29.9895 28.2962 30.2045 28.711 30.5488C29.1257 30.893 29.4303 31.3515 29.587 31.8672C29.6627 32.2711 29.8762 32.6361 30.1911 32.9C30.5061 33.1638 30.9028 33.3101 31.3137 33.3139H31.5937C32.0275 33.203 32.4034 32.9321 32.6458 32.5556C32.8881 32.179 32.9791 31.7247 32.9003 31.2839ZM55.3237 26.3839L49.0003 20.1539C50.829 17.5209 51.606 14.2988 51.1784 11.1217C50.7509 7.9446 49.1497 5.04256 46.69 2.98666C44.2303 0.930752 41.0903 -0.130133 37.8877 0.0127666C34.6851 0.155666 31.652 1.492 29.3852 3.75881C27.1184 6.02561 25.7821 9.05872 25.6392 12.2613C25.4963 15.4638 26.5572 18.6039 28.6131 21.0636C30.669 23.5233 33.571 25.1245 36.7481 25.552C39.9252 25.9796 43.1473 25.2026 45.7803 23.3739L52.0103 29.6272C52.2272 29.8459 52.4853 30.0195 52.7696 30.138C53.054 30.2565 53.359 30.3174 53.667 30.3174C53.975 30.3174 54.28 30.2565 54.5643 30.138C54.8487 30.0195 55.1067 29.8459 55.3237 29.6272C55.7442 29.1922 55.9793 28.6107 55.9793 28.0056C55.9793 27.4005 55.7442 26.819 55.3237 26.3839ZM30.3337 12.8739C30.3337 11.2587 30.8126 9.67976 31.71 8.33676C32.6074 6.99376 33.8828 5.94701 35.3751 5.3289C36.8673 4.71078 38.5094 4.54906 40.0936 4.86417C41.6777 5.17928 43.1329 5.95708 44.275 7.09921C45.4172 8.24134 46.195 9.6965 46.5101 11.2807C46.8252 12.8649 46.6635 14.5069 46.0453 15.9992C45.4272 17.4914 44.3805 18.7669 43.0375 19.6643C41.6945 20.5616 40.1155 21.0406 38.5003 21.0406C36.3344 21.0406 34.2572 20.1802 32.7256 18.6486C31.1941 17.1171 30.3337 15.0399 30.3337 12.8739Z" fill="#479B6D"/>
</svg>
