<svg width="61" height="61" viewBox="0 0 61 61" fill="none" xmlns="http://www.w3.org/2000/svg">
<path d="M22.875 8.89583V52.1042M7.625 23.8917C7.625 18.1983 7.625 15.3517 8.73317 13.176C9.70786 11.2631 11.2631 9.70786 13.176 8.73317C15.3517 7.625 18.1983 7.625 23.8917 7.625H37.1083C42.8017 7.625 45.6483 7.625 47.824 8.73317C49.7369 9.70786 51.2921 11.2631 52.2668 13.176C53.375 15.3517 53.375 18.1983 53.375 23.8917V37.1083C53.375 42.8017 53.375 45.6483 52.2668 47.824C51.2921 49.7369 49.7369 51.2921 47.824 52.2668C45.6483 53.375 42.8017 53.375 37.1083 53.375H23.8917C18.1983 53.375 15.3517 53.375 13.176 52.2668C11.2631 51.2921 9.70786 49.7369 8.73317 47.824C7.625 45.6483 7.625 42.8017 7.625 37.1083V23.8917Z" stroke="#479B6D" stroke-width="5" stroke-linecap="round" stroke-linejoin="round"/>
</svg>
