<svg width="31" height="31" viewBox="0 0 31 31" fill="none" xmlns="http://www.w3.org/2000/svg">
<path fill-rule="evenodd" clip-rule="evenodd" d="M4.43027 13.2857C4.43027 10.9367 5.36343 8.6838 7.02447 7.02277C8.6855 5.36173 10.9384 4.42857 13.2874 4.42857C15.6365 4.42857 17.8893 5.36173 19.5504 7.02277C21.2114 8.6838 22.1446 10.9367 22.1446 13.2857C22.1446 15.6348 21.2114 17.8876 19.5504 19.5487C17.8893 21.2097 15.6365 22.1429 13.2874 22.1429C10.9384 22.1429 8.6855 21.2097 7.02447 19.5487C5.36343 17.8876 4.43027 15.6348 4.43027 13.2857ZM13.2874 2.51236e-07C11.1965 -0.000266577 9.13499 0.492994 7.27062 1.43967C5.40626 2.38634 3.79166 3.75969 2.55815 5.44802C1.32463 7.13635 0.507024 9.092 0.171827 11.1559C-0.16337 13.2198 -0.00669266 15.3337 0.629115 17.3256C1.26492 19.3175 2.36191 21.1313 3.83085 22.6193C5.2998 24.1073 7.09922 25.2276 9.08278 25.8891C11.0663 26.5506 13.178 26.7345 15.2461 26.426C17.3141 26.1175 19.2802 25.3252 20.9843 24.1136L27.2219 30.3512C27.6395 30.7546 28.1989 30.9777 28.7794 30.9727C29.36 30.9677 29.9154 30.7348 30.3259 30.3242C30.7365 29.9137 30.9694 29.3583 30.9744 28.7777C30.9794 28.1972 30.7563 27.6378 30.3529 27.2202L24.1175 20.9848C25.5308 18.9972 26.3698 16.6588 26.5424 14.2261C26.715 11.7933 26.2146 9.35995 25.0961 7.19266C23.9776 5.02538 22.2841 3.20781 20.2012 1.9391C18.1183 0.670398 15.7263 -0.00047397 13.2874 2.51236e-07Z" fill="#479B6D"/>
</svg>
